# xmcd CD database file
# Copyright (C) 1993-1998 Ti Kan
#
# Track frame offsets:
#	150
#	12167
#	23717
#	36167
#	47735
#	59697
#	72142
#	86042
#	98587
#	114727
#	129855
#
# Disc length: 1900 seconds
#
# Revision: 1
# Processed by: cddbd v1.4b41PL1 Copyright (c) Steve Scherf et al.
# Submitted via: CDValet v3.31 - Copyright (c) 1997 Greg Leichner
#
DISCID=8a076a0b
DTITLE=Ray Conniff Su Orquesta Y Coros - Latino
DYEAR=1900
DGENRE=
TTITLE0=Bésame Mucho
TTITLE1=Tico-Tico
TTITLE2=Aquellos Ojos Verdes
TTITLE3=Patricia
TTITLE4=Lisboa Antigua
TTITLE5=Besos De Guego
TTITLE6=Brasil
TTITLE7=Volaré
TTITLE8=El Mar
TTITLE9=Malagueña
TTITLE10=Dama De España
EXTD=
EXTT0=
EXTT1=
EXTT2=
EXTT3=
EXTT4=
EXTT5=
EXTT6=
EXTT7=
EXTT8=
EXTT9=
EXTT10=
PLAYORDER=
